<?xml version="1.0" encoding="utf-8"?>
<!-- Generator: Adobe Illustrator 16.0.0, SVG Export Plug-In . SVG Version: 6.00 Build 0)  -->
<!DOCTYPE svg PUBLIC "-//W3C//DTD SVG 1.1//EN" "http://www.w3.org/Graphics/SVG/1.1/DTD/svg11.dtd">
<svg version="1.1" id="Layer_1" xmlns="http://www.w3.org/2000/svg" xmlns:xlink="http://www.w3.org/1999/xlink" x="0px" y="0px"
	 width="751px" height="169px" viewBox="0 0 751 169" enable-background="new 0 0 751 169" xml:space="preserve">
<g>
	<g>
		<g>
			<path fill="#89D4E1" d="M78.628,161.117c3.531,3.035,8.738,3.035,12.269,0c4.142-3.559,11.053-9.857,22.561-21.008
				c27.029-26.184,25.34-37.447,25.466-38.67c1.886-18.299-12.89-33.288-29.283-33.288S84.763,80.917,84.763,80.917
				s-8.484-12.765-24.879-12.765c-16.393,0-31.168,14.989-29.282,33.288c0.125,1.223-1.564,12.486,25.466,38.67
				C67.576,151.26,74.486,157.559,78.628,161.117z"/>
		</g>
		
			<ellipse transform="matrix(0.8831 -0.4691 0.4691 0.8831 -25.9919 16.4421)" fill="#89D4E1" cx="20.006" cy="60.392" rx="16.434" ry="21.056"/>
		
			<ellipse transform="matrix(0.9881 -0.1537 0.1537 0.9881 -4.5849 9.1315)" fill="#89D4E1" cx="56.775" cy="34.224" rx="20.707" ry="26.531"/>
	</g>
	<path fill="#5BC7D9" d="M92.285,31.043c2.25-14.48,13.238-24.793,24.542-23.038c11.303,1.764,18.637,14.92,16.387,29.4
		c-2.259,14.48-13.237,24.793-24.541,23.038C97.37,58.68,90.035,45.523,92.285,31.043z"/>
	<path fill="#5BC7D9" d="M138.92,101.436c-0.126,1.225,1.565,12.49-25.459,38.67c-11.51,11.15-18.422,17.449-22.563,21.014
		c-1.763,1.512-3.949,2.277-6.136,2.277V80.917c0,0,8.486-12.77,24.873-12.77C126.033,68.147,140.81,83.141,138.92,101.436z"/>
	<path fill="#5BC7D9" d="M164.027,68.103c-5.453,10.268-16.369,15.146-24.388,10.88c-8.019-4.256-10.088-16.028-4.634-26.296
		c5.453-10.277,16.368-15.146,24.388-10.889C167.411,46.054,169.481,57.834,164.027,68.103z"/>
</g>
<g>
	<path fill="#3F403F" stroke="#3F403F" stroke-width="2" stroke-miterlimit="10" d="M202.318,41.234
		c12.604,0.058,22.373,2.87,29.307,8.436c7.656,6.143,11.485,13.527,11.485,22.15c0,8.681-3.829,16.079-11.485,22.193
		c-6.934,5.537-16.703,8.335-29.307,8.393h-14.193V41.234H202.318z M192.459,44.825v54.034h9.805c11.015,0,19.7-2.45,26.058-7.354
		c6.789-5.422,10.185-11.984,10.185-19.684c0-7.672-3.396-14.233-10.185-19.685c-6.357-4.874-15.043-7.311-26.058-7.311H192.459z"/>
	<path fill="#3F403F" stroke="#3F403F" stroke-width="2" stroke-miterlimit="10" d="M290.836,41.234v3.461H256.87V70.09h33.966
		v3.461H256.87v25.395h33.966v3.461h-38.3V41.234H290.836z"/>
	<path fill="#3F403F" stroke="#3F403F" stroke-width="2" stroke-miterlimit="10" d="M307.305,81.208v21.198h-4.334V41.234h20.098
		c5.851,0.635,10.816,2.582,14.897,5.84c4.876,3.923,7.313,8.624,7.313,14.104c0,5.538-2.438,10.26-7.313,14.168
		c-4.875,3.908-10.763,5.862-17.66,5.862H307.305z M307.305,44.738v32.965h13.001c5.67,0,10.527-1.607,14.572-4.824
		c4.045-3.215,6.067-7.116,6.067-11.702c0-4.557-2.022-8.436-6.067-11.638c-4.045-3.201-8.902-4.802-14.572-4.802H307.305z"/>
	<path fill="#3F403F" stroke="#3F403F" stroke-width="2" stroke-miterlimit="10" d="M399.182,102.406l-10.238-22.583h-26.491
		l-10.292,22.583h-4.605l28.17-61.691l28.008,61.691H399.182z M387.372,76.406l-11.647-25.654l-11.701,25.654H387.372z"/>
</g>
<g>
	<path fill="#3F403F" d="M187.176,116.767h6.984c4.488,0,7.249,3.408,7.249,8.377c0,3.864-1.681,8.856-7.345,8.856h-6.889V116.767z
		 M189.504,132.008h4.513c3.023,0,4.992-2.376,4.992-6.721c0-4.344-1.992-6.528-5.16-6.528h-4.345V132.008z"/>
	<path fill="#3F403F" d="M217.104,134h-12.721v-17.233h12.553v2.064h-10.225v5.28h9.433v2.064h-9.433v5.76h10.393V134z"/>
	<path fill="#3F403F" d="M222.239,131.936h8.736V134h-11.064v-17.233h2.328V131.936z"/>
	<path fill="#3F403F" d="M245.976,134h-12.721v-17.233h12.553v2.064h-10.225v5.28h9.433v2.064h-9.433v5.76h10.393V134z"/>
	<path fill="#3F403F" d="M256.296,124.783h7.561V134h-1.512l-0.553-2.232c-1.176,1.633-3.336,2.688-5.688,2.688
		c-2.952,0-4.393-1.08-5.28-1.944c-2.641-2.496-2.712-5.448-2.712-7.272c0-4.2,2.544-8.929,8.16-8.929
		c3.217,0,6.793,1.824,7.297,5.688h-2.256c-0.744-3-3.265-3.624-5.161-3.624c-3.096,0-5.64,2.472-5.64,6.984
		c0,3.504,1.151,7.104,5.736,7.104c0.864,0,2.256-0.096,3.528-1.104c1.512-1.199,1.896-2.736,1.896-4.584h-5.376V124.783z"/>
	<path fill="#3F403F" d="M269.927,128.983l-1.8,5.017h-2.4l6.48-17.233h2.641l6.24,17.233h-2.544l-1.704-5.017H269.927z
		 M276,126.919l-2.545-7.584h-0.048l-2.76,7.584H276z"/>
	<path fill="#3F403F" d="M294.359,121.951c-0.647-3.024-3.168-3.576-4.824-3.576c-3.12,0-5.641,2.304-5.641,6.84
		c0,4.057,1.44,7.177,5.713,7.177c1.512,0,4.128-0.72,4.92-4.729h2.257c-0.96,6.505-6.241,6.793-7.537,6.793
		c-3.912,0-7.753-2.544-7.753-9.169c0-5.305,3.024-8.977,8.041-8.977c4.44,0,6.745,2.76,7.081,5.641H294.359z"/>
	<path fill="#3F403F" d="M302.039,134h-2.328v-17.233h2.328V134z"/>
	<path fill="#3F403F" d="M308.494,128.983l-1.8,5.017h-2.4l6.48-17.233h2.641l6.24,17.233h-2.544l-1.704-5.017H308.494z
		 M314.567,126.919l-2.545-7.584h-0.048l-2.76,7.584H314.567z"/>
	<path fill="#3F403F" d="M340.943,134h-12.721v-17.233h12.553v2.064h-10.225v5.28h9.433v2.064h-9.433v5.76h10.393V134z"/>
	<path fill="#3F403F" d="M346.078,131.936h8.736V134H343.75v-17.233h2.328V131.936z"/>
	<path fill="#3F403F" d="M369.815,134h-12.721v-17.233h12.553v2.064h-10.225v5.28h9.433v2.064h-9.433v5.76h10.393V134z"/>
	<path fill="#3F403F" d="M371.134,116.767h13.993v2.064h-5.832V134h-2.328v-15.169h-5.833V116.767z"/>
	<path fill="#3F403F" d="M389.662,134h-2.328v-17.233h7.969c2.832,0,5.664,0.984,5.664,4.632c0,2.545-1.296,3.48-2.4,4.129
		c0.984,0.408,1.969,0.84,2.064,3.24l0.145,3.12c0.023,0.96,0.144,1.32,0.863,1.729V134h-2.855c-0.336-1.056-0.408-3.672-0.408-4.32
		c0-1.416-0.288-3.072-3.072-3.072h-5.641V134z M389.662,124.615h5.4c1.704,0,3.504-0.432,3.504-2.977
		c0-2.664-1.943-2.88-3.096-2.88h-5.809V124.615z"/>
	<path fill="#3F403F" d="M411.646,134.456c-6.433,0-8.4-5.353-8.4-9.073c0-3.72,1.968-9.072,8.4-9.072s8.4,5.353,8.4,9.072
		C420.046,129.104,418.078,134.456,411.646,134.456z M411.646,118.375c-3.744,0-6.001,2.952-6.001,7.008
		c0,4.057,2.257,7.009,6.001,7.009s6-2.952,6-7.009C417.646,121.327,415.39,118.375,411.646,118.375z M410.062,115.086h-1.896
		l2.376-3.384h2.232l2.376,3.384h-1.92l-1.584-2.231L410.062,115.086z"/>
	<path fill="#3F403F" d="M433.99,116.767h2.256V134h-2.616l-8.761-13.921h-0.048V134h-2.256v-17.233h2.76l8.617,13.921h0.048
		V116.767z"/>
	<path fill="#3F403F" d="M442.342,134h-2.328v-17.233h2.328V134z"/>
	<path fill="#3F403F" d="M458.182,121.951c-0.647-3.024-3.168-3.576-4.824-3.576c-3.12,0-5.641,2.304-5.641,6.84
		c0,4.057,1.44,7.177,5.713,7.177c1.512,0,4.128-0.72,4.92-4.729h2.257c-0.96,6.505-6.241,6.793-7.537,6.793
		c-3.912,0-7.753-2.544-7.753-9.169c0-5.305,3.024-8.977,8.041-8.977c4.44,0,6.745,2.76,7.081,5.641H458.182z"/>
	<path fill="#3F403F" d="M465.885,128.983l-1.8,5.017h-2.4l6.48-17.233h2.641l6.24,17.233h-2.544l-1.704-5.017H465.885z
		 M471.958,126.919l-2.545-7.584h-0.048l-2.76,7.584H471.958z"/>
	<path fill="#3F403F" d="M485.492,116.767h6.984c4.488,0,7.249,3.408,7.249,8.377c0,3.864-1.681,8.856-7.345,8.856h-6.889V116.767z
		 M487.82,132.008h4.513c3.023,0,4.992-2.376,4.992-6.721c0-4.344-1.992-6.528-5.16-6.528h-4.345V132.008z"/>
	<path fill="#3F403F" d="M515.421,134H502.7v-17.233h12.553v2.064h-10.225v5.28h9.433v2.064h-9.433v5.76h10.393V134z"/>
	<path fill="#3F403F" d="M527.229,134H524.9v-17.233h7.752c3.192,0,5.113,2.064,5.113,4.849c0,2.4-1.368,5.112-5.113,5.112h-5.424
		V134z M527.229,124.735h4.632c2.089,0,3.505-0.769,3.505-3.097c0-2.184-1.488-2.88-3.408-2.88h-4.729V124.735z"/>
	<path fill="#3F403F" d="M543.044,134h-2.328v-17.233h7.969c2.832,0,5.664,0.984,5.664,4.632c0,2.545-1.296,3.48-2.4,4.129
		c0.984,0.408,1.969,0.84,2.064,3.24l0.145,3.12c0.023,0.96,0.144,1.32,0.863,1.729V134h-2.855c-0.336-1.056-0.408-3.672-0.408-4.32
		c0-1.416-0.288-3.072-3.072-3.072h-5.641V134z M543.044,124.615h5.4c1.704,0,3.504-0.432,3.504-2.977
		c0-2.664-1.943-2.88-3.096-2.88h-5.809V124.615z"/>
	<path fill="#3F403F" d="M564.548,134.456c-6.433,0-8.4-5.353-8.4-9.073c0-3.72,1.968-9.072,8.4-9.072s8.4,5.353,8.4,9.072
		C572.948,129.104,570.98,134.456,564.548,134.456z M564.548,118.375c-3.744,0-6.001,2.952-6.001,7.008
		c0,4.057,2.257,7.009,6.001,7.009s6-2.952,6-7.009C570.548,121.327,568.292,118.375,564.548,118.375z"/>
	<path fill="#3F403F" d="M573.02,116.767h13.993v2.064h-5.832V134h-2.328v-15.169h-5.833V116.767z"/>
	<path fill="#3F403F" d="M601.893,134h-12.721v-17.233h12.553v2.064H591.5v5.28h9.433v2.064H591.5v5.76h10.393V134z"/>
	<path fill="#3F403F" d="M616.796,121.951c-0.647-3.024-3.168-3.576-4.824-3.576c-3.12,0-5.641,2.304-5.641,6.84
		c0,4.057,1.44,7.177,5.713,7.177c1.512,0,4.128-0.72,4.92-4.729h2.257c-0.96,6.505-6.241,6.793-7.537,6.793
		c-3.912,0-7.753-2.544-7.753-9.169c0-5.305,3.024-8.977,8.041-8.977c4.44,0,6.745,2.76,7.081,5.641H616.796z M610.987,134h1.129
		l-1.104,1.488c0.264-0.048,0.432-0.096,0.744-0.096c1.56,0,2.016,1.031,2.016,1.8c0,1.248-1.056,2.208-2.832,2.208
		c-0.888,0-1.68-0.264-2.304-0.528l0.408-0.96c0.6,0.24,0.96,0.36,1.56,0.36c0.456,0,1.345-0.12,1.345-1.008
		c0-0.744-0.816-0.937-1.152-0.937c-0.216,0-0.433,0.048-0.937,0.192l-0.408-0.456L610.987,134z"/>
	<path fill="#3F403F" d="M624.499,128.983l-1.8,5.017h-2.4l6.48-17.233h2.641L635.66,134h-2.544l-1.704-5.017H624.499z
		 M632.06,111.99c-0.168,1.44-1.031,2.616-2.399,2.616c-0.433,0-0.769-0.096-1.417-0.313l-0.624-0.216
		c-0.84-0.288-1.176-0.36-1.464-0.36c-0.647,0-0.936,0.433-1.128,1.057h-1.152c0.192-1.416,0.889-2.568,2.496-2.568
		c0.624,0,1.129,0.168,1.633,0.36l0.527,0.216c0.456,0.192,0.937,0.312,1.129,0.312c0.96,0,1.104-0.647,1.199-1.104H632.06z
		 M630.572,126.919l-2.545-7.584h-0.048l-2.76,7.584H630.572z"/>
	<path fill="#3F403F" d="M645.067,134.456c-6.433,0-8.4-5.353-8.4-9.073c0-3.72,1.968-9.072,8.4-9.072s8.4,5.353,8.4,9.072
		C653.468,129.104,651.5,134.456,645.067,134.456z M645.067,118.375c-3.744,0-6.001,2.952-6.001,7.008
		c0,4.057,2.257,7.009,6.001,7.009s6-2.952,6-7.009C651.067,121.327,648.812,118.375,645.067,118.375z"/>
	<path fill="#3F403F" d="M665.131,128.983l-1.8,5.017h-2.4l6.48-17.233h2.641l6.24,17.233h-2.544l-1.704-5.017H665.131z
		 M671.204,126.919l-2.545-7.584h-0.048l-2.76,7.584H671.204z"/>
	<path fill="#3F403F" d="M689.611,116.767h2.256V134h-2.616l-8.761-13.921h-0.048V134h-2.256v-17.233h2.76l8.617,13.921h0.048
		V116.767z"/>
	<path fill="#3F403F" d="M697.963,134h-2.328v-17.233h2.328V134z"/>
	<path fill="#3F403F" d="M715.892,134v-10.177c0-0.504,0.048-2.688,0.048-4.297h-0.048L711.043,134h-2.305l-4.848-14.449h-0.049
		c0,1.584,0.049,3.769,0.049,4.272V134h-2.257v-17.233h3.337l4.92,14.569h0.048l4.896-14.569h3.313V134H715.892z"/>
	<path fill="#3F403F" d="M724.17,128.983l-1.8,5.017h-2.4l6.48-17.233h2.641l6.24,17.233h-2.544l-1.704-5.017H724.17z
		 M730.243,126.919l-2.545-7.584h-0.048l-2.76,7.584H730.243z"/>
	<path fill="#3F403F" d="M739.554,131.936h8.736V134h-11.064v-17.233h2.328V131.936z"/>
</g>
</svg>
