<?xml version="1.0" encoding="utf-8"?>
<!-- Generator: Adobe Illustrator 16.0.0, SVG Export Plug-In . SVG Version: 6.00 Build 0)  -->
<!DOCTYPE svg PUBLIC "-//W3C//DTD SVG 1.1//EN" "http://www.w3.org/Graphics/SVG/1.1/DTD/svg11.dtd">
<svg version="1.1" id="Layer_1" xmlns="http://www.w3.org/2000/svg" xmlns:xlink="http://www.w3.org/1999/xlink" x="0px" y="0px"
	 width="72px" height="68.333px" viewBox="0 0 72 68.333" enable-background="new 0 0 72 68.333" xml:space="preserve">
<g>
	<g>
		<g>
			<path fill="#FFFFFF" d="M33.544,64.849c1.437,1.235,3.556,1.235,4.992,0c1.685-1.448,4.497-4.01,9.178-8.547
				C58.71,45.65,58.023,41.067,58.075,40.57c0.767-7.445-5.244-13.542-11.914-13.542S36.04,32.22,36.04,32.22
				s-3.452-5.193-10.122-5.193c-6.669,0-12.68,6.098-11.913,13.542c0.051,0.498-0.636,5.08,10.361,15.732
				C29.048,60.839,31.859,63.401,33.544,64.849z"/>
		</g>
		
			<ellipse transform="matrix(0.8831 -0.4691 0.4691 0.8831 -10.0648 7.3375)" fill="#FFFFFF" cx="9.695" cy="23.87" rx="6.686" ry="8.566"/>
		
			<ellipse transform="matrix(0.9881 -0.1537 0.1537 0.9881 -1.7391 3.9452)" fill="#FFFFFF" cx="24.654" cy="13.224" rx="8.424" ry="10.794"/>
	</g>
	<path fill="#FFFFFF" d="M39.101,11.93c0.916-5.891,5.386-10.086,9.984-9.373c4.599,0.717,7.583,6.07,6.667,11.961
		c-0.919,5.891-5.386,10.087-9.985,9.373C41.169,23.173,38.185,17.82,39.101,11.93z"/>
	<path fill="#FFFFFF" d="M58.073,40.568c-0.051,0.498,0.637,5.082-10.358,15.732c-4.682,4.537-7.495,7.099-9.179,8.549
		c-0.717,0.615-1.606,0.926-2.496,0.926V32.221c0,0,3.453-5.195,10.119-5.195C52.831,27.025,58.842,33.125,58.073,40.568z"/>
	<path fill="#FFFFFF" d="M68.289,27.007c-2.219,4.178-6.66,6.162-9.922,4.427c-3.262-1.731-4.104-6.521-1.885-10.698
		c2.218-4.181,6.659-6.162,9.921-4.43S70.507,22.83,68.289,27.007z"/>
</g>
</svg>
